<svg height="512" viewBox="0 0 58 58" width="512" xmlns="http://www.w3.org/2000/svg"><g id="Page-1" fill="none" fill-rule="evenodd"><g id="027---Formal-Dress" fill-rule="nonzero"><path id="Shape" d="m57.35 22.71-6.16-2.3c-.2742507-.1024379-.4898385-.3199097-.5898863-.5950413-.1000479-.2751316-.0745063-.5802869.0698863-.8349587l2.95-5.13c.2663928-.4731107.1065949-1.0723527-.36-1.35l-9.2-5.5h-30.12l-9.2 5.5c-.46659491.2776473-.62639276.8768893-.36 1.35l2.95 5.13c.14439258.2546718.16993417.5598271.06988632.8349587-.10004786.2751316-.31563564.4926034-.58988632.5950413l-6.16 2.3c-.44951544.1704614-.71411783.6366656-.63 1.11.94 5.28 7.08 34.18 28.98 34.18s28.04-28.9 28.98-34.18c.0841178-.4733344-.1804846-.9395386-.63-1.11z" fill="#35495e"/><path id="Shape" d="m27 5v4c-3 5-11 5-11 5-.12923-.139792-.2463197-.290336-.35-.45-1.1977064-1.9670823-1.7728572-4.2502566-1.65-6.55-.1204457-2.29700458.4519596-4.57721951 1.643-6.545.1968037-.28997912.5310469-.45577285.881-.437 1.827.101 7.939.754 10.476 4.982z" fill="#ff5364"/><path id="Shape" d="m44 7c.1228572 2.2997434-.4522936 4.5829177-1.65 6.55-.1036803.159664-.22077.310208-.35.45 0 0-8 0-11-5v-4c2.537-4.228 8.649-4.881 10.476-4.982.3499531-.01877285.6841963.14702088.881.437 1.1910404 1.96778049 1.7634457 4.24799542 1.643 6.545z" fill="#df4d60"/><g fill="#802f34"><path id="Shape" d="m27 8c-4.488 0-5.764-2.292-5.895-2.553-.163449-.31778774-.1449444-.69863473.0485434-.9990796.1934877-.30044486.5325632-.47484288.8895-.4575.3569367.01734288.6775076.22379186.8409566.5415796.055.094.916 1.468 4.116 1.468.5522847 0 1 .44771525 1 1s-.4477153 1-1 1z"/><path id="Shape" d="m22 9.984c-.3426392-.00082168-.6607497-.17788135-.8420015-.46865633-.1812517-.29077498-.2001413-.65435109-.0499985-.96234367.128-.261 1.404-2.553 5.892-2.553.5522847 0 1 .44771525 1 1s-.4477153 1-1 1c-3.239 0-4.083 1.411-4.118 1.471-.1816546.31587764-.5176181.51128499-.882.513z"/><path id="Shape" d="m31 8c-.5522847 0-1-.44771525-1-1s.4477153-1 1-1c3.239 0 4.083-1.411 4.118-1.471.2688748-.47324172.8634152-.64979416 1.347-.4.4776639.24848232.6687902.83341793.43 1.316-.131.263-1.407 2.555-5.895 2.555z"/><path id="Shape" d="m36 10c-.3708206.0004714-.7114561-.20429485-.885-.532-.054-.094-.915-1.468-4.115-1.468-.5522847 0-1-.44771525-1-1s.4477153-1 1-1c4.488 0 5.764 2.292 5.9 2.553.1553431.31085882.1381628.68007643-.0453763.97516644-.183539.29509001-.5071168.47373566-.8546237.47183356z"/></g><path id="Shape" d="m57.98 23.82c-.94 5.28-7.08 34.18-28.98 34.18v-4c17.08-13.67 14.47-34.63 13.35-40.45 1.1977064-1.9670823 1.7728572-4.2502566 1.65-6.55h.06l9.2 5.5c.4665949.2776473.6263928.8768893.36 1.35l-2.95 5.13c-.1443926.2546718-.1699342.5598271-.0698863.8349587.1000478.2751316.3156356.4926034.5898863.5950413l6.16 2.3c.4495154.1704614.7141178.6366656.63 1.11z" fill="#2c3e50"/><path id="Shape" d="m29 54v-43h1c.5522847 0 1-.4477153 1-1v-1c3 5 11 5 11 5 .12923-.139792.2463197-.290336.35-.45 1.12 5.82 3.73 26.78-13.35 40.45z" fill="#bdc3c7"/><path id="Shape" d="m29 11v43c-17.08-13.67-14.47-34.63-13.35-40.45.1036803.159664.22077.310208.35.45 0 0 8 0 11-5v1c0 .5522847.4477153 1 1 1z" fill="#ecf0f1"/><circle id="Oval" cx="35" cy="19" fill="#df4d60" r="2"/><circle id="Oval" cx="35" cy="28" fill="#df4d60" r="2"/><circle id="Oval" cx="35" cy="37" fill="#df4d60" r="2"/><rect id="Rectangle-path" fill="#c03a2b" height="8" rx="1" width="4" x="27" y="3"/></g></g></svg>